<svg width="24" height="24" viewBox="0 0 24 24" fill="none" xmlns="http://www.w3.org/2000/svg">
<path fill-rule="evenodd" clip-rule="evenodd" d="M7.30435 -0.000488281C4.99916 -0.000488281 3.13043 1.79037 3.13043 3.99951V5.99951H1.04348C0.467181 5.99951 0 6.44723 0 6.99951C0 7.5518 0.467181 7.99951 1.04348 7.99951H3.13043V10.9995H1.04348C0.467181 10.9995 0 11.4472 0 11.9995C0 12.5518 0.467181 12.9995 1.04348 12.9995H3.13043V15.9995H1.04348C0.467181 15.9995 0 16.4472 0 16.9995C0 17.5518 0.467181 17.9995 1.04348 17.9995H3.13043V19.9995C3.13043 22.2087 4.99916 23.9995 7.30435 23.9995H19.8261C22.1313 23.9995 24 22.2087 24 19.9995V3.99951C24 1.79037 22.1313 -0.000488281 19.8261 -0.000488281H7.30435ZM19.8261 2.99951H12.5217V20.9995H19.8261C20.4024 20.9995 20.8696 20.5518 20.8696 19.9995V3.99951C20.8696 3.44723 20.4024 2.99951 19.8261 2.99951ZM6.26087 17.9995V19.9995C6.26087 20.5518 6.72805 20.9995 7.30435 20.9995H10.4348V2.99951H7.30435C6.72805 2.99951 6.26087 3.44723 6.26087 3.99951V5.99951H8.34783C8.92412 5.99951 9.3913 6.44723 9.3913 6.99951C9.3913 7.5518 8.92412 7.99951 8.34783 7.99951H6.26087V10.9995H8.34783C8.92412 10.9995 9.3913 11.4472 9.3913 11.9995C9.3913 12.5518 8.92412 12.9995 8.34783 12.9995H6.26087V15.9995H8.34783C8.92412 15.9995 9.3913 16.4472 9.3913 16.9995C9.3913 17.5518 8.92412 17.9995 8.34783 17.9995H6.26087Z" fill="#808080"/>
</svg>
