<svg width="24" height="20" viewBox="0 0 24 20" fill="none" xmlns="http://www.w3.org/2000/svg">
<path d="M7.2 3.20005H8.4C9.06274 3.20005 9.6 2.66279 9.6 2.00005C9.6 1.33731 9.06274 0.800049 8.4 0.800049H6C4.01178 0.800049 2.4 2.41182 2.4 4.40005V6.80005C2.4 7.46279 1.86274 8.00005 1.2 8.00005C0.537258 8.00005 0 8.53731 0 9.20005V11.6C0 12.2628 0.537258 12.8 1.2 12.8C1.86274 12.8 2.4 13.3373 2.4 14V16.4C2.4 18.3883 4.01178 20 6 20H8.4C9.06274 20 9.6 19.4628 9.6 18.8C9.6 18.1373 9.06274 17.6 8.4 17.6H7.2C5.87452 17.6 4.8 16.5255 4.8 15.2V12.2C4.8 11.5373 4.26274 11 3.6 11H3.2C2.82723 11 2.4252 10.7563 2.4252 10.4C2.4252 10 2.82723 9.80005 3.2 9.80005H3.6C4.26274 9.80005 4.8 9.26279 4.8 8.60005V5.60005C4.8 4.27457 5.87452 3.20005 7.2 3.20005Z" fill="#808080"/>
<path d="M16.8 3.20005H15.6C14.9373 3.20005 14.4 2.66279 14.4 2.00005C14.4 1.33731 14.9373 0.800049 15.6 0.800049H18C19.9882 0.800049 21.6 2.41182 21.6 4.40005V6.80005C21.6 7.46279 22.1373 8.00005 22.8 8.00005C23.4627 8.00005 24 8.53731 24 9.20005V11.6C24 12.2628 23.4627 12.8 22.8 12.8C22.1373 12.8 21.6 13.3373 21.6 14V16.4C21.6 18.3883 19.9882 20 18 20H15.6C14.9373 20 14.4 19.4628 14.4 18.8C14.4 18.1373 14.9373 17.6 15.6 17.6H16.8C18.1255 17.6 19.2 16.5255 19.2 15.2V12.2C19.2 11.5373 19.7373 11 20.4 11H20.8C21.1728 11 21.5748 10.7563 21.5748 10.4C21.5748 10 21.1728 9.80005 20.8 9.80005H20.4C19.7373 9.80005 19.2 9.26279 19.2 8.60005V5.60005C19.2 4.27457 18.1255 3.20005 16.8 3.20005Z" fill="#808080"/>
</svg>
